<?xml version="1.0" standalone="no"?>
<!DOCTYPE svg PUBLIC "-//W3C//DTD SVG 20010904//EN"
 "http://www.w3.org/TR/2001/REC-SVG-20010904/DTD/svg10.dtd">
<svg version="1.0" xmlns="http://www.w3.org/2000/svg"
 width="63.000000pt" height="100.000000pt" viewBox="0 0 63.000000 100.000000"
 preserveAspectRatio="xMidYMid meet">

<g transform="translate(0.000000,100.000000) scale(0.100000,-0.100000)"
fill="#000000" stroke="none">
<path d="M0 500 c0 -270 3 -490 7 -490 4 0 20 12 35 27 l28 27 0 284 0 285 97
98 c53 55 100 99 105 99 4 0 8 -171 8 -380 l0 -380 35 0 35 0 0 380 c0 209 4
380 8 380 5 0 52 -44 105 -99 l97 -98 0 -285 0 -284 28 -27 c15 -15 31 -27 35
-27 4 0 7 220 7 490 0 270 -4 490 -8 490 -5 0 -20 -13 -35 -28 -26 -27 -27
-32 -27 -137 l0 -110 -108 108 c-88 88 -113 107 -137 107 -24 0 -49 -19 -137
-107 l-108 -108 0 111 c0 108 -1 111 -28 137 -15 15 -31 27 -35 27 -4 0 -7
-220 -7 -490z"/>
</g>
</svg>
